<svg width="24" height="24" viewBox="0 0 24 24" fill="none" xmlns="http://www.w3.org/2000/svg">
<path d="M4.30897 17.6133C3.76209 18.17 3.7328 19.1953 4.3285 19.7813C4.9242 20.377 5.93983 20.3575 6.49647 19.8008L12.0043 14.293L17.5023 19.791C18.0785 20.377 19.0746 20.3672 19.6605 19.7715C20.2562 19.1856 20.2562 18.1895 19.6801 17.6133L14.182 12.1153L19.6801 6.60745C20.2562 6.03128 20.2562 5.03519 19.6605 4.44925C19.0746 3.85355 18.0785 3.85355 17.5023 4.42972L12.0043 9.92776L6.49647 4.41995C5.93983 3.87308 4.91444 3.84378 4.3285 4.43948C3.74256 5.03519 3.76209 6.05081 4.30897 6.60745L9.81678 12.1153L4.30897 17.6133Z" fill="black"/>
</svg>
