<svg width="58" height="18" viewBox="0 0 58 18" fill="none" xmlns="http://www.w3.org/2000/svg">
<g clip-path="url(#clip0_162_1137)">
<path d="M8.54876 7.35939C9.08932 7.51004 9.51467 7.78475 9.82482 8.18351C10.135 8.57342 10.2901 9.06967 10.2901 9.67225C10.2901 10.4787 9.98433 11.099 9.37289 11.5332C8.7703 11.9674 7.88858 12.1845 6.72772 12.1845H2.28809V2.87988H6.46187C7.52526 2.87988 8.34495 3.09256 8.92095 3.51791C9.50581 3.94327 9.79824 4.53256 9.79824 5.28579C9.79824 5.77318 9.68304 6.1941 9.45264 6.54856C9.2311 6.90302 8.92981 7.1733 8.54876 7.35939ZM3.61732 3.95656V6.93404H6.34224C7.02458 6.93404 7.54741 6.80998 7.91073 6.56185C8.28292 6.30487 8.46901 5.93268 8.46901 5.4453C8.46901 4.95791 8.28292 4.59016 7.91073 4.34204C7.54741 4.08505 7.02458 3.95656 6.34224 3.95656H3.61732ZM6.67455 11.1078C7.42778 11.1078 7.99492 10.9838 8.37596 10.7356C8.75701 10.4875 8.94753 10.0976 8.94753 9.56591C8.94753 8.52911 8.18987 8.01071 6.67455 8.01071H3.61732V11.1078H6.67455ZM20.4033 9.85835H15.4586L14.4351 12.1845H13.066L17.2796 2.87988H18.5956L22.8225 12.1845H21.4268L20.4033 9.85835ZM19.9381 8.79496L17.9309 4.2357L15.9238 8.79496H19.9381ZM27.7176 4.03631H24.5275V2.87988H32.2237V4.03631H29.0336V12.1845H27.7176V4.03631ZM43.8002 2.87988V12.1845H42.7103L37.1275 5.24591V12.1845H35.7983V2.87988H36.8882L42.471 9.81847V2.87988H43.8002ZM54.6404 9.85835H49.6957L48.6721 12.1845H47.303L51.5167 2.87988H52.8326L57.0596 12.1845H55.6639L54.6404 9.85835ZM54.1752 8.79496L52.168 4.2357L50.1609 8.79496H54.1752Z" fill="black"/>
<path d="M57.1077 15.7847H0.892334V18.0001H57.1077V15.7847Z" fill="#FF4B2B"/>
</g>
<defs>
<clipPath id="clip0_162_1137">
<rect width="56.2154" height="18" fill="white" transform="translate(0.892334)"/>
</clipPath>
</defs>
</svg>
